<svg width="180.000000" height="180.000000" viewBox="0 0 180 180" fill="none" xmlns="http://www.w3.org/2000/svg" xmlns:xlink="http://www.w3.org/1999/xlink">
	<desc>
			Created with Pixso.
	</desc>
	<defs>
		<clipPath id="clip474_7859">
			<rect width="180.000000" height="180.000000" fill="white" fill-opacity="0"/>
		</clipPath>
	</defs>
	<rect width="180.000000" height="180.000000" fill="#FFFFFF" fill-opacity="0"/>
	<g clip-path="url(#clip474_7859)">
		<path d="M89.4495 158.953L23.134 102.73C25.7009 116.668 32.4027 129.132 41.9 138.759C54.0881 151.114 70.8844 158.803 89.4495 158.953ZM83.1049 87.6039L83.7821 88.9786L89.9998 94.1593L90.0002 69.8365L104.843 57.3484L106.274 57.1476L140.161 52.3252L139.48 47.3403C130.353 48.6213 121.23 49.9397 112.105 51.239L135.151 31.8488C137.42 33.6612 139.58 35.6067 141.619 37.6736C149.789 45.9565 156.031 56.195 159.606 67.6348L108.241 110.92L115.017 88.3471L110.275 86.8889L101.31 116.761L89.9995 126.292L89.9995 100.646L65.5387 80.2718L32.7425 70.2186L30.3621 69.4893L31.8008 64.6632L55.5443 71.9465L32.6605 52.8855C25.8971 63.6001 21.9761 76.3369 21.9761 90C21.9761 91.8026 22.0447 93.5885 22.1786 95.3561L54.7904 123.003L44.8606 103.435L49.2717 101.131L63.9084 129.976L64.584 131.305L89.9988 152.851L89.9988 132.824L117.814 109.385L119.061 109.169L154.788 102.907L153.953 97.9419C144.453 99.5836 134.959 101.273 125.462 102.939L161.051 72.9489C162.326 78.4231 163 84.1318 163 90.0003C163 110.435 154.828 128.936 141.619 142.326C128.409 155.716 110.157 164 89.9998 164C69.8419 164 51.5905 155.716 38.3811 142.326C26.8923 130.68 19.2154 115.166 17.4104 97.8784L17.405 97.874L17.4091 97.8693C17.1389 95.2835 17 92.6584 17 90C17 69.5667 25.1717 51.0656 38.3811 37.6739C51.5905 24.2843 69.8419 16 89.9998 16C105.213 16 119.34 20.7195 131.034 28.79C117.366 40.3065 103.672 51.7928 89.9995 63.3039L89.9995 48.7336L69.7338 31.5519L72.9217 27.6906L89.9998 42.1668L89.9998 21.0436C71.2158 21.0436 54.2083 28.7632 41.8994 41.2404C39.5916 43.5798 37.4488 46.0865 35.4905 48.7411L74.3675 81.1344L65.3727 62.916L69.8041 60.6706L83.1039 87.6046L83.1049 87.6039Z" fill="#065E78" fill-opacity="1.000000" fill-rule="evenodd"/>
	</g>
</svg>
