<svg width="500.000000" height="500.000000" viewBox="0 0 500 500" fill="none" xmlns="http://www.w3.org/2000/svg" xmlns:xlink="http://www.w3.org/1999/xlink">
	<desc>
			Created with Pixso.
	</desc>
	<defs>
		<clipPath id="clip474_7857">
			<rect id="favicon" width="500.000000" height="500.000000" fill="white" fill-opacity="0"/>
		</clipPath>
	</defs>
	<g clip-path="url(#clip474_7857)">
		<path id="Vector" d="M248.318 460.585L45.7382 288.878C53.5796 331.446 74.0521 369.512 103.064 398.912C140.296 436.645 191.606 460.128 248.318 460.585ZM228.937 242.682L231.006 246.881L250 262.703L250.001 188.419L295.343 150.28L299.714 149.667L403.232 134.939L401.152 119.715C373.271 123.627 345.401 127.654 317.525 131.622L387.928 72.4032C394.859 77.9384 401.456 83.8798 407.686 90.1923C432.644 115.489 451.711 146.758 462.631 181.696L305.721 313.892L326.423 244.952L311.936 240.499L284.548 331.729L249.998 360.838L249.998 282.515L175.276 220.29L75.0901 189.586L67.8184 187.359L72.2135 172.62L144.745 194.864L74.8395 136.65C54.1788 169.373 42.201 208.272 42.201 250C42.201 255.505 42.4106 260.959 42.8197 266.358L142.442 350.793L112.108 291.032L125.583 283.994L170.296 372.089L172.359 376.148L249.996 441.95L249.996 380.785L334.966 309.202L338.775 308.543L447.913 289.42L445.364 274.255C416.342 279.269 387.342 284.428 358.33 289.516L467.046 197.925C470.939 214.644 473 232.078 473 250.001C473 312.409 448.037 368.912 407.685 409.807C367.331 450.701 311.576 476 250 476C188.421 476 132.667 450.701 92.3148 409.807C57.219 374.239 33.7676 326.86 28.2537 274.061L28.2373 274.048L28.2496 274.033C27.4244 266.136 27 258.119 27 250C27 187.596 51.9628 131.092 92.3148 90.1933C132.667 49.3007 188.421 24 250 24C296.473 24 339.627 38.4137 375.35 63.0614C333.597 98.2334 291.766 133.313 249.998 168.469L249.998 123.97L188.091 71.4964L197.829 59.7036L250 103.915L250 39.4034C192.618 39.4034 140.664 62.9796 103.062 101.085C96.0126 108.23 89.4669 115.886 83.4846 123.993L202.246 222.924L174.768 167.284L188.306 160.426L228.934 242.684L228.937 242.682Z" fill="#065E78" fill-opacity="1.000000" fill-rule="evenodd"/>
	</g>
</svg>
