<svg width="40" height="40" fill="none" xmlns="http://www.w3.org/2000/svg"><rect width="40" height="40" rx="20" fill="#065E78"/><path d="M19.9246 29.3179L10.8403 21.7203C11.1919 23.6038 12.11 25.2881 13.411 26.589C15.0806 28.2586 17.3814 29.2977 19.9246 29.3179ZM19.0555 19.6762L19.1482 19.862L20 20.5621L20 17.2752L22.0333 15.5876L22.2293 15.5605L26.8714 14.9088L26.7781 14.2352C25.5278 14.4083 24.2781 14.5864 23.028 14.762L26.1851 12.1417C26.4959 12.3867 26.7917 12.6495 27.0711 12.9289C28.1903 14.0482 29.0454 15.4318 29.535 16.9777L22.4987 22.8271L23.427 19.7766L22.7774 19.5796L21.5492 23.6163L19.9999 24.9043V21.4387L16.6491 18.6854L12.1565 17.3268L11.8304 17.2283L12.0275 16.5761L15.28 17.5603L12.1453 14.9845C11.2188 16.4324 10.6817 18.1536 10.6817 20C10.6817 20.2436 10.6911 20.4849 10.7094 20.7238L15.1768 24.4599L13.8165 21.8156L14.4208 21.5041L16.4258 25.4022L16.5184 25.5818L19.9998 28.4934V25.787L23.8101 22.6196L23.9809 22.5904L28.875 21.7442L28.7607 21.0732C27.4593 21.2951 26.1588 21.5234 24.8579 21.7485L29.733 17.6958C29.9076 18.4356 30 19.207 30 20C30 22.7614 28.8806 25.2616 27.0711 27.0711C25.2615 28.8806 22.7612 30 20 30C17.2386 30 14.7384 28.8806 12.9289 27.0711C11.3551 25.4973 10.3035 23.4009 10.0562 21.0647L10.0555 21.0641L10.056 21.0634C10.019 20.714 10 20.3592 10 20C10 17.2387 11.1194 14.7386 12.9289 12.9289C14.7384 11.1195 17.2386 10 20 10C22.084 10 24.0191 10.6378 25.6211 11.7284C23.7488 13.2847 21.8729 14.8369 19.9999 16.3924V14.4235L17.2238 12.1016L17.6605 11.5798L20 13.536V10.6816C17.4268 10.6816 15.097 11.7248 13.4109 13.4109C13.0947 13.727 12.8012 14.0657 12.5329 14.4245L17.8586 18.8019L16.6264 16.34L17.2334 16.0366L19.0553 19.6763L19.0555 19.6762Z" fill="white"/></svg>